<?xml version="1.0" encoding="UTF-8"?>
<svg version="1.1" xmlns="http://www.w3.org/2000/svg" width="500" height="500">
<path d="M0 0 C4.18394654 3.60027444 8.34129417 7.20822635 12.09375 11.26171875 C13.9394877 13.33690125 13.9394877 13.33690125 17 13 C18.6333031 11.47015442 18.6333031 11.47015442 20.1875 9.4375 C36.79912878 -10.20695727 62.71744121 -21.44042442 88 -24 C113.72425337 -25.99502827 137.66326013 -19.2385769 159 -5 C159.65597168 -4.56445801 160.31194336 -4.12891602 160.98779297 -3.68017578 C162.69794831 -2.5090305 164.3542245 -1.26001411 166 0 C166 0.66 166 1.32 166 2 C166.54269531 2.22171875 167.08539063 2.4434375 167.64453125 2.671875 C178.04215454 8.53454817 185.26665288 19.87771544 191 30 C191.63808594 31.11117187 192.27617187 32.22234375 192.93359375 33.3671875 C206.24019862 58.14895055 208.1294104 87.19450542 200.375 114 C192.75113523 138.87145045 176.00261367 156.63406315 157.90169883 174.63560319 C155.42429223 177.10268723 152.95687972 179.57973981 150.48774719 182.05509949 C146.34540989 186.20465705 142.1948427 190.34584091 138.03930664 194.48217773 C133.27272083 199.22699137 128.52073284 203.98605969 123.77603596 208.75275403 C119.65987867 212.88721027 115.53579471 217.01363808 111.40528232 221.133753 C108.95672378 223.57615719 106.51075042 226.02098664 104.07199669 228.47318459 C84.6224305 247.99625856 65.95776733 262.87853633 39 270 C37.64068359 270.36931641 37.64068359 270.36931641 36.25390625 270.74609375 C27.75114753 272.66949471 18.92566373 272.25974693 10.26171875 272.05322266 C8.43524051 272.01024206 6.60820025 271.99155461 4.78125 271.98046875 C-16.47215384 271.15598326 -38.32226798 261.02765176 -54 247 C-55.14266657 245.98670435 -55.14266657 245.98670435 -56.30841732 244.95293808 C-61.99121896 239.8795817 -67.49122258 234.66653899 -72.88696289 229.29003906 C-73.71277359 228.47079956 -74.53858429 227.65156006 -75.38941956 226.80749512 C-78.08669086 224.12973017 -80.78011252 221.44814314 -83.47265625 218.765625 C-84.40105253 217.84130424 -85.32944881 216.91698349 -86.28597832 215.96465302 C-90.69188092 211.57772039 -95.09542117 207.18843341 -99.49604136 202.79620194 C-104.53493152 197.76708347 -109.58200225 192.74636542 -114.63615614 187.73258805 C-118.57225554 183.82683475 -122.50047007 179.91325906 -126.42307276 175.99395156 C-128.75293613 173.66641545 -131.0868427 171.34321058 -133.42723274 169.02625275 C-145.16842999 157.39539538 -156.01446127 146.17834084 -163.25 131.125 C-163.57371582 130.4635498 -163.89743164 129.80209961 -164.23095703 129.12060547 C-176.47784938 103.40030092 -177.90441172 73.99254257 -168.6796875 47.0703125 C-164.34397864 35.13766798 -157.95157399 22.14512153 -149 13 C-148.34 13 -147.68 13 -147 13 C-146.79375 12.46375 -146.5875 11.9275 -146.375 11.375 C-144.46749574 8.08021991 -141.95180616 5.40636372 -139 3 C-138.34 3 -137.68 3 -137 3 C-137 2.34 -137 1.68 -137 1 C-97.91744673 -31.85377134 -39.46077394 -32.64779501 0 0 Z M-114 47 C-122.98434834 59.42351824 -127.34254181 73.71822776 -126 89 C-122.81007501 108.7416058 -112.95215244 120.16376965 -99.18237305 134.01049805 C-98.35177368 134.8492749 -97.52117432 135.68805176 -96.66540527 136.55224609 C-93.95049208 139.29171587 -91.23167802 142.02725945 -88.51171875 144.76171875 C-87.56565497 145.71315661 -86.6195929 146.66459617 -85.67353249 147.61603737 C-81.735327 151.57579476 -77.79571317 155.53414209 -73.85238934 159.48880291 C-68.24620017 165.11123319 -62.64869868 170.7420057 -57.06289834 176.38469476 C-53.10708555 180.37938985 -49.14156254 184.36428294 -45.16889602 188.34221679 C-42.80817894 190.7065576 -40.4531222 193.0758936 -38.10571861 195.45349693 C-23.1255098 210.61549624 -9.34299594 223.16255637 13 224 C13.72574219 224.06316406 14.45148438 224.12632812 15.19921875 224.19140625 C28.01837893 224.92596071 42.80439127 218.84934931 52.65107727 210.84492493 C53.5194371 210.03283066 54.38779694 209.22073639 55.2824707 208.3840332 C55.78360288 207.91598676 56.28473505 207.44794031 56.80105305 206.96571064 C64.79977905 199.43703773 72.56619776 191.66171435 80.35546875 183.91796875 C81.6460189 182.63540412 81.6460189 182.63540412 82.96264076 181.32692909 C87.50846454 176.80764312 92.05073443 172.28481615 96.59057617 167.75952148 C100.32030167 164.04315921 104.05717286 160.33421505 107.80053711 156.6315918 C112.35789448 152.12379552 116.90262492 147.60361989 121.43880653 143.0745182 C123.15474776 141.36524051 124.87490085 139.66017916 126.5995388 137.95967674 C142.7771864 121.99577865 156.2546436 106.24066438 156.625 82.4375 C156.46491737 69.74102622 152.42032373 58.34794525 145 48 C144.51144531 47.31679687 144.02289063 46.63359375 143.51953125 45.9296875 C136.43104055 37.00343996 125.83103068 30.32273992 115 27 C114.32195312 26.77699219 113.64390625 26.55398437 112.9453125 26.32421875 C99.44368106 22.57942663 83.03518313 24.30737442 70.65405273 30.73779297 C61.2557097 36.65482815 53.82109155 43.66489411 46.1875 51.6875 C26.65960334 72.07478833 26.65960334 72.07478833 15.875 72.3125 C7.8043533 72.22361623 3.17564309 70.33769178 -2.5 64.6875 C-3.07234375 64.07648438 -3.6446875 63.46546875 -4.234375 62.8359375 C-5.98389043 61.01675111 -7.81210781 59.42741016 -9.75 57.8125 C-13.25263528 54.81024119 -16.31204237 51.50105808 -19.375 48.0625 C-30.79153524 35.38902642 -44.92371442 25.83720963 -62.3515625 24.6484375 C-83.20091106 23.75681835 -100.28387602 30.92152075 -114 47 Z " fill="#048EC1" transform="translate(235,131)"/>
<path d="M0 0 C4.48125442 3.93847324 8.56822548 7.90627125 12.20703125 12.63671875 C9.3429505 16.86464748 6.66946673 20.56982006 2.39453125 23.44921875 C-1.02377374 25.32368882 -1.02377374 25.32368882 -1.79296875 28.63671875 C-2.45296875 28.63671875 -3.11296875 28.63671875 -3.79296875 28.63671875 C-4.12296875 29.62671875 -4.45296875 30.61671875 -4.79296875 31.63671875 C-5.78296875 32.13171875 -5.78296875 32.13171875 -6.79296875 32.63671875 C-10.89047256 41.30451528 -10.16792079 49.35579246 -8.79296875 58.63671875 C-12.73627668 57.04637522 -15.37819781 54.31444016 -18.29296875 51.32421875 C-18.76605469 50.85048828 -19.23914063 50.37675781 -19.7265625 49.88867188 C-21.90199437 47.68612244 -23.93519613 45.45677957 -25.85546875 43.02734375 C-34.14975499 32.79326476 -47.82567738 25.55198455 -60.79296875 23.63671875 C-77.68448093 22.03898042 -93.19642974 24.9105602 -106.79296875 35.63671875 C-118.97831391 46.02327487 -126.62456348 60.53641719 -128.05078125 76.52734375 C-128.66458056 93.14084514 -123.39515031 107.81751559 -112.23626137 120.02199745 C-108.58020223 123.93457658 -104.84275165 127.75844584 -101.06713867 131.55541992 C-100.24629288 132.38444321 -99.42544708 133.21346649 -98.57972717 134.06761169 C-95.89727737 136.77461359 -93.21093072 139.47769302 -90.5234375 142.1796875 C-89.13508414 143.57602637 -89.13508414 143.57602637 -87.71868324 145.00057411 C-83.82680045 148.91400783 -79.93350976 152.82603192 -76.03650951 156.73437023 C-70.4968824 162.29023821 -64.96594542 167.85444672 -59.4467079 173.43057269 C-55.53760564 177.37856082 -51.61879034 181.31674303 -47.69283181 185.24796849 C-45.36008876 187.58433471 -43.03290128 189.92579774 -40.71349144 192.27541161 C-27.53371808 205.61708 -14.45013055 218.51162018 5.20703125 220.63671875 C5.20703125 221.29671875 5.20703125 221.95671875 5.20703125 222.63671875 C4.29953125 222.88421875 3.39203125 223.13171875 2.45703125 223.38671875 C-2.51427884 225.29876109 -4.53949779 227.96881461 -6.79296875 232.63671875 C-7.45296875 232.96671875 -8.11296875 233.29671875 -8.79296875 233.63671875 C-11.21863364 239.0587932 -11.39759579 244.7893608 -11.79296875 250.63671875 C-11.13296875 250.63671875 -10.47296875 250.63671875 -9.79296875 250.63671875 C-9.79296875 252.61671875 -9.79296875 254.59671875 -9.79296875 256.63671875 C-9.13296875 256.63671875 -8.47296875 256.63671875 -7.79296875 256.63671875 C-7.35984375 257.39984375 -6.92671875 258.16296875 -6.48046875 258.94921875 C-4.58547046 261.96717899 -2.83922566 262.90776213 0.20703125 264.63671875 C0.20703125 265.29671875 0.20703125 265.95671875 0.20703125 266.63671875 C0.86703125 266.63671875 1.52703125 266.63671875 2.20703125 266.63671875 C2.20703125 267.29671875 2.20703125 267.95671875 2.20703125 268.63671875 C-4.54085239 268.89468613 -10.19528108 268.14359162 -16.66796875 266.26171875 C-17.57200439 265.99987793 -18.47604004 265.73803711 -19.4074707 265.46826172 C-33.27309994 261.20098542 -45.97500056 254.3160965 -56.79296875 244.63671875 C-57.93563532 243.6234231 -57.93563532 243.6234231 -59.10138607 242.58965683 C-64.78418771 237.51630045 -70.28419133 232.30325774 -75.67993164 226.92675781 C-76.50574234 226.10751831 -77.33155304 225.28827881 -78.18238831 224.44421387 C-80.87965961 221.76644892 -83.57308127 219.08486189 -86.265625 216.40234375 C-87.19402128 215.47802299 -88.12241756 214.55370224 -89.07894707 213.60137177 C-93.48484967 209.21443914 -97.88838992 204.82515216 -102.28901011 200.43292069 C-107.32790027 195.40380222 -112.374971 190.38308417 -117.42912489 185.3693068 C-121.36522429 181.4635535 -125.29343882 177.54997781 -129.21604151 173.63067031 C-131.54590488 171.3031342 -133.87981145 168.97992933 -136.22020149 166.6629715 C-147.96139874 155.03211413 -158.80743002 143.81505959 -166.04296875 128.76171875 C-166.36668457 128.10026855 -166.69040039 127.43881836 -167.02392578 126.75732422 C-179.27081813 101.03701967 -180.69738047 71.62926132 -171.47265625 44.70703125 C-167.13694739 32.77438673 -160.74454274 19.78184028 -151.79296875 10.63671875 C-151.13296875 10.63671875 -150.47296875 10.63671875 -149.79296875 10.63671875 C-149.58671875 10.10046875 -149.38046875 9.56421875 -149.16796875 9.01171875 C-147.26046449 5.71693866 -144.74477491 3.04308247 -141.79296875 0.63671875 C-141.13296875 0.63671875 -140.47296875 0.63671875 -139.79296875 0.63671875 C-139.79296875 -0.02328125 -139.79296875 -0.68328125 -139.79296875 -1.36328125 C-99.0086611 -35.64758987 -40.23063442 -34.04130604 0 0 Z " fill="#5C9C4D" transform="translate(237.79296875,133.36328125)"/>
<path d="M0 0 C10.85254384 5.63937768 19.60330688 16.53109801 28.1640625 25.12890625 C29.4499241 26.41663751 30.73601005 27.70414477 32.02230835 28.99143982 C35.3748511 32.34776463 38.72437749 35.70708348 42.07324219 39.06707764 C45.50401 42.50815327 48.9376807 45.94632969 52.37109375 49.38476562 C59.08354149 56.10787447 65.7927999 62.83415621 72.5 69.5625 C76.51624163 67.71150531 79.24099014 65.0603141 82.296875 61.92578125 C82.84933899 61.36811569 83.40180298 60.81045013 83.9710083 60.23588562 C85.73550514 58.45362195 87.49318795 56.66483665 89.25 54.875 C90.99332102 53.10383427 92.73815767 51.33423379 94.48614502 49.56767273 C95.57103592 48.47077179 96.65325076 47.37121422 97.7321167 46.26838684 C100.53883425 43.42551634 103.41855415 40.73332407 106.44482422 38.12426758 C110.40884421 34.69453085 114.06954846 31.04020996 117.7109375 27.2734375 C119.05147477 25.90565329 120.39263986 24.53848417 121.734375 23.171875 C123.80931488 21.0537481 125.88013463 18.93218572 127.94042969 16.79980469 C145.44306438 -1.28597347 145.44306438 -1.28597347 156.625 -1.9375 C164.71950741 -1.45613649 171.07713791 1.47898466 176.5 7.5625 C180.63730439 13.50517357 182.0811567 19.84531899 181.19921875 27.00390625 C180.03530165 32.0633826 178.03664436 35.41807197 174.51928711 39.21630859 C173.30944656 40.52338776 173.30944656 40.52338776 172.07516479 41.85687256 C167.79707481 46.35169855 163.45144363 50.77366108 159.06640625 55.1640625 C158.09750039 56.13619183 157.12866533 57.10839172 156.15989685 58.08065796 C154.15237428 60.09410163 152.14286452 62.10553681 150.13208008 64.11572266 C147.5523843 66.69531553 144.97971311 69.28179928 142.40861607 71.86995888 C140.42094747 73.86870277 138.42879452 75.86292905 136.43531609 77.85587692 C135.02190355 79.27104288 133.61303936 80.6907468 132.20423889 82.11050415 C130.92666969 83.3834584 130.92666969 83.3834584 129.62329102 84.68212891 C128.87322281 85.43362213 128.1231546 86.18511536 127.35035706 86.9593811 C125.5 88.5625 125.5 88.5625 123.5 88.5625 C123.23445312 89.15417969 122.96890625 89.74585938 122.6953125 90.35546875 C121.46662421 92.62412523 120.21612243 94.08097605 118.375 95.875 C117.83617187 96.40738281 117.29734375 96.93976563 116.7421875 97.48828125 C114.80225194 99.28289063 112.82292833 100.99997437 110.81640625 102.71875 C107.76719546 105.37236655 104.90510536 108.13494414 102.09765625 111.04296875 C101.35193359 111.81447266 100.60621094 112.58597656 99.83789062 113.38085938 C98.31696439 114.96445038 96.80394798 116.55567518 95.29882812 118.15429688 C89.22535563 124.395458 82.49956781 129.17953967 73.5 129.5625 C65.61729867 128.38407596 59.65738703 125.05655297 53.85546875 119.60546875 C53.30940475 119.09283981 52.76334076 118.58021088 52.20072937 118.05204773 C43.54832912 109.85621114 35.20528277 101.33446146 26.8125 92.875 C23.39478402 89.43073865 19.97378267 85.98978885 16.55078125 82.55078125 C15.77068192 81.76238358 14.99058258 80.9739859 14.18684387 80.16169739 C13.46816635 79.43971664 12.74948883 78.7177359 12.0090332 77.97387695 C11.37761917 77.3372261 10.74620514 76.70057526 10.09565735 76.04463196 C8.5515905 74.47119354 8.5515905 74.47119354 6.5 73.5625 C6.5 72.9025 6.5 72.2425 6.5 71.5625 C5.60963295 71.15765381 5.60963295 71.15765381 4.70127869 70.74462891 C2.51023586 69.56799686 1.04832274 68.38149156 -0.72045898 66.6484375 C-1.32466171 66.06022217 -1.92886444 65.47200684 -2.55137634 64.8659668 C-3.19313309 64.22957275 -3.83488983 63.59317871 -4.49609375 62.9375 C-5.5019326 61.94520386 -5.5019326 61.94520386 -6.52809143 60.93286133 C-7.94536024 59.53008967 -9.35984264 58.12449802 -10.77172852 56.71630859 C-12.91421361 54.58565777 -15.07461687 52.47439874 -17.23632812 50.36328125 C-32.1637567 35.61720063 -32.1637567 35.61720063 -34.12890625 25.2421875 C-33.9367719 17.12733686 -32.41151498 12.02484214 -27.1875 5.8125 C-19.20568873 -0.86994665 -10.06001432 -3.9380839 0 0 Z " fill="#048EC1" transform="translate(176.5,191.4375)"/>
<path d="M0 0 C10.93609111 5.68491796 19.75679551 16.68496389 28.3828125 25.34765625 C29.6910944 26.65780771 30.99960058 27.96773524 32.30831909 29.27745056 C35.7200451 32.69295944 39.12875499 36.11146252 42.5368042 39.53063965 C46.02789601 43.03203749 49.52188908 46.53053769 53.015625 50.02929688 C59.84656152 56.87089593 66.67430906 63.71566783 73.5 70.5625 C72.51 72.5425 72.51 72.5425 71.5 74.5625 C70.84 74.5625 70.18 74.5625 69.5 74.5625 C69.5 75.2225 69.5 75.8825 69.5 76.5625 C68.530625 77.201875 67.56125 77.84125 66.5625 78.5 C60.89253379 82.34954761 55.5704818 88.4215364 52.5 94.5625 C51.84 94.5625 51.18 94.5625 50.5 94.5625 C50.5 101.4925 50.5 108.4225 50.5 115.5625 C42.62690255 108.81413076 42.62690255 108.81413076 39.52416992 105.68432617 C38.8304277 104.98728073 38.13668549 104.29023529 37.42192078 103.57206726 C36.69874161 102.84058975 35.97556244 102.10911224 35.23046875 101.35546875 C34.46825516 100.58946854 33.70604156 99.82346832 32.92073059 99.03425598 C30.507201 96.60859351 28.09695948 94.17970501 25.6875 91.75 C22.49633481 88.53231281 19.30192189 85.31790193 16.10546875 82.10546875 C15.37216843 81.36387009 14.6388681 80.62227142 13.88334656 79.85820007 C13.20536514 79.17691544 12.52738373 78.4956308 11.82885742 77.79370117 C11.23264084 77.19224777 10.63642426 76.59079437 10.0221405 75.97111511 C8.53563464 74.46395472 8.53563464 74.46395472 6.5 73.5625 C6.5 72.9025 6.5 72.2425 6.5 71.5625 C5.60963295 71.15765381 5.60963295 71.15765381 4.70127869 70.74462891 C2.51023586 69.56799686 1.04832274 68.38149156 -0.72045898 66.6484375 C-1.32466171 66.06022217 -1.92886444 65.47200684 -2.55137634 64.8659668 C-3.19313309 64.22957275 -3.83488983 63.59317871 -4.49609375 62.9375 C-5.5019326 61.94520386 -5.5019326 61.94520386 -6.52809143 60.93286133 C-7.94536024 59.53008967 -9.35984264 58.12449802 -10.77172852 56.71630859 C-12.91421361 54.58565777 -15.07461687 52.47439874 -17.23632812 50.36328125 C-32.1637567 35.61720063 -32.1637567 35.61720063 -34.12890625 25.2421875 C-33.9367719 17.12733686 -32.41151498 12.02484214 -27.1875 5.8125 C-19.20568873 -0.86994665 -10.06001432 -3.9380839 0 0 Z " fill="#5C9C4E" transform="translate(176.5,191.4375)"/>
<path d="M0 0 C0.8971875 0.309375 0.8971875 0.309375 1.8125 0.625 C1.8125 1.285 1.8125 1.945 1.8125 2.625 C2.8025 2.955 3.7925 3.285 4.8125 3.625 C4.8125 4.285 4.8125 4.945 4.8125 5.625 C5.4725 5.625 6.1325 5.625 6.8125 5.625 C8.0194104 7.06658742 9.2210516 8.51314495 10.38671875 9.98828125 C11.95088758 11.8903335 11.95088758 11.8903335 14.875 14 C20.09566362 18.66527387 22.42682948 24.30594817 22.90625 31.26953125 C22.59737277 39.03007175 19.49641752 46.29786518 13.8125 51.625 C7.95727948 55.24516323 1.64615781 57.39933199 -5.1875 55.875 C-12.86623684 53.63960213 -18.88328829 49.63123973 -24.1875 43.625 C-25.25 40.1875 -25.25 40.1875 -25.1875 36.625 C-25.20941406 35.89023437 -25.23132813 35.15546875 -25.25390625 34.3984375 C-25.3636955 30.02150614 -25.07057768 25.93000371 -24.1875 21.625 C-23.5275 21.625 -22.8675 21.625 -22.1875 21.625 C-21.93613281 20.89410156 -21.68476563 20.16320312 -21.42578125 19.41015625 C-18.64523202 13.15611335 -12.81665266 7.43295621 -7.1875 3.625 C-6.5275 3.625 -5.8675 3.625 -5.1875 3.625 C-5.1875 2.965 -5.1875 2.305 -5.1875 1.625 C-2.1875 -0.375 -2.1875 -0.375 0 0 Z " fill="#1CB8C7" transform="translate(251.1875,264.375)"/>
<path d="M0 0 C1.32 0.33 2.64 0.66 4 1 C4 1.66 4 2.32 4 3 C4.59022949 3.2671582 5.18045898 3.53431641 5.78857422 3.80957031 C9.48408339 5.79889497 12.17379176 8.80487672 15.125 11.75 C15.75792969 12.3584375 16.39085937 12.966875 17.04296875 13.59375 C22.52110875 19.03699739 24.28390518 23.50611373 24.3125 31.3125 C24.15794984 38.1049796 23.97800593 44.06147521 18.9375 49.03515625 C10.96212677 55.42332527 5.27835351 56.97360903 -5 56 C-11.12056048 54.32437115 -16.33952418 50.13075005 -20 45 C-21.24722938 42.01773596 -21.71115897 39.20876131 -22 36 C-22.08121094 35.18144531 -22.16242188 34.36289063 -22.24609375 33.51953125 C-22.59665437 26.66766454 -21.03999708 20.52702504 -16.48828125 15.24609375 C-15 14 -15 14 -13 14 C-12.938125 13.4225 -12.87625 12.845 -12.8125 12.25 C-11.66615826 9.07551517 -9.74043158 7.87151425 -7 6 C-6.34 6 -5.68 6 -5 6 C-4.67 5.01 -4.34 4.02 -4 3 C-3.01 2.67 -2.02 2.34 -1 2 C-0.67 1.34 -0.34 0.68 0 0 Z " fill="#1DB8C7" transform="translate(249,148)"/>
<path d="M0 0 C5.49668724 4.79542132 8.68233799 9.49971908 9.35546875 16.76953125 C9.63721244 25.91536483 7.94104101 30.35442621 2.08203125 37.12890625 C-0.11569427 38.98323715 -2.45062871 40.3493392 -4.91796875 41.81640625 C-5.41296875 42.80640625 -5.41296875 42.80640625 -5.91796875 43.81640625 C-8.35554288 43.84339047 -10.7928179 43.86323724 -13.23046875 43.87890625 C-13.92076172 43.88728516 -14.61105469 43.89566406 -15.32226562 43.90429688 C-18.46627125 43.91948531 -20.91216894 43.81833952 -23.91796875 42.81640625 C-23.91796875 42.15640625 -23.91796875 41.49640625 -23.91796875 40.81640625 C-24.57796875 40.81640625 -25.23796875 40.81640625 -25.91796875 40.81640625 C-25.91796875 40.15640625 -25.91796875 39.49640625 -25.91796875 38.81640625 C-26.68109375 38.56890625 -27.44421875 38.32140625 -28.23046875 38.06640625 C-31.1787782 36.69509953 -32.27631407 35.58129835 -33.91796875 32.81640625 C-33.91796875 32.15640625 -33.91796875 31.49640625 -33.91796875 30.81640625 C-34.57796875 30.81640625 -35.23796875 30.81640625 -35.91796875 30.81640625 C-35.91796875 28.83640625 -35.91796875 26.85640625 -35.91796875 24.81640625 C-36.57796875 24.81640625 -37.23796875 24.81640625 -37.91796875 24.81640625 C-38.24812798 18.05425615 -38.29661543 12.79401192 -34.91796875 6.81640625 C-34.25796875 6.48640625 -33.59796875 6.15640625 -32.91796875 5.81640625 C-32.23734375 4.67171875 -32.23734375 4.67171875 -31.54296875 3.50390625 C-29.3819876 -0.07002411 -27.85569723 -2.53302065 -23.75390625 -3.91015625 C-14.62664305 -6.02948981 -7.69495195 -5.59265334 0 0 Z " fill="#1CB8C7" transform="translate(263.91796875,359.18359375)"/>
<path d="M0 0 C0.33 0.99 0.66 1.98 1 3 C0.01 3.33 -0.98 3.66 -2 4 C-2.309375 4.66 -2.61875 5.32 -2.9375 6 C-3.4634375 6.99 -3.4634375 6.99 -4 8 C-5.32594105 8.36162029 -6.65938457 8.69728039 -8 9 C-8.33 9.99 -8.66 10.98 -9 12 C-10.66035188 13.51986057 -12.41906169 14.84596813 -14.2109375 16.20703125 C-17.76404907 19.7679007 -19.15555272 23.39075862 -19.328125 28.34765625 C-19.31760252 29.91945135 -19.29124795 31.49121098 -19.25 33.0625 C-19.24484375 33.85205078 -19.2396875 34.64160156 -19.234375 35.45507812 C-19.18118781 39.42084782 -18.96538507 43.13067436 -18 47 C-19.9375 45.9375 -19.9375 45.9375 -22 44 C-23.71187563 36.86718488 -23.46869468 29.15988658 -22 22 C-21.34 22 -20.68 22 -20 22 C-19.74863281 21.26910156 -19.49726563 20.53820312 -19.23828125 19.78515625 C-16.45773202 13.53111335 -10.62915266 7.80795621 -5 4 C-4.34 4 -3.68 4 -3 4 C-3 3.34 -3 2.68 -3 2 C-2.01 1.34 -1.02 0.68 0 0 Z " fill="#3BAA8C" transform="translate(249,264)"/>
<path d="M0 0 C0 3 0 3 -1 6 C-1.36676691 12.0732286 -0.88957176 17.99539059 0 24 C-3.90285767 22.41332422 -6.33520982 19.86649519 -9.25 16.875 C-10.14203125 15.96492187 -11.0340625 15.05484375 -11.953125 14.1171875 C-12.62859375 13.41851562 -13.3040625 12.71984375 -14 12 C-11 11 -11 11 -9 11 C-8.34 10.34 -7.68 9.68 -7 9 C-6.01 9.33 -5.02 9.66 -4 10 C-4.0825 9.278125 -4.165 8.55625 -4.25 7.8125 C-3.92573441 4.16451206 -2.42680413 2.65431702 0 0 Z " fill="#5E9B52" transform="translate(229,168)"/>
<path d="M0 0 C-2.2680349 1.83187434 -4.35721875 3.17116732 -7 4.4375 C-11.15618131 6.60217776 -13.50677421 8.52032262 -15 13 C-16.32 13 -17.64 13 -19 13 C-18.67 20.26 -18.34 27.52 -18 35 C-18.66 35 -19.32 35 -20 35 C-20 33.02 -20 31.04 -20 29 C-20.66 29 -21.32 29 -22 29 C-22.33015923 22.2378499 -22.37864668 16.97760567 -19 11 C-18.34 10.67 -17.68 10.34 -17 10 C-16.319375 8.8553125 -16.319375 8.8553125 -15.625 7.6875 C-13.46140888 4.10925314 -11.65675523 1.50977084 -7.5625 0.25 C-5.02045574 0.00199568 -2.55235416 -0.0729244 0 0 Z " fill="#34B09D" transform="translate(248,355)"/>
<path d="M0 0 C0.9075 0.309375 1.815 0.61875 2.75 0.9375 C5.16563338 1.7272263 7.52780285 2.42949297 10 3 C10 4.32 10 5.64 10 7 C10.66 7.33 11.32 7.66 12 8 C12.391875 8.70125 12.78375 9.4025 13.1875 10.125 C15.61119681 13.9694846 18.71994886 16.88170481 22 20 C21.67 20.66 21.34 21.32 21 22 C18.00611124 19.03075698 15.01546454 16.05829855 12.02783203 13.08276367 C11.01017212 12.0701449 9.99161821 11.05842377 8.97216797 10.04760742 C7.51035593 8.5978706 6.05174758 7.14497792 4.59375 5.69140625 C3.71396484 4.81685791 2.83417969 3.94230957 1.92773438 3.04125977 C0 1 0 1 0 0 Z " fill="#649561" transform="translate(116,313)"/>
<path d="M0 0 C0.33 0.99 0.66 1.98 1 3 C0.47535156 3.45246094 -0.04929687 3.90492188 -0.58984375 4.37109375 C-9.4563956 12.17542974 -17.69844016 20.60446569 -26 29 C-26.66 28.67 -27.32 28.34 -28 28 C-18.76 18.76 -9.52 9.52 0 0 Z " fill="#248BB7" transform="translate(363,266)"/>
<path d="M0 0 C0.33 0 0.66 0 1 0 C1.7417478 22.1288094 1.7417478 22.1288094 -3 31 C-3.08857863 27.7085089 -3.1409104 24.41733195 -3.1875 21.125 C-3.21263672 20.2071875 -3.23777344 19.289375 -3.26367188 18.34375 C-3.33346187 11.73696406 -2.24534805 6.20867002 0 0 Z " fill="#1A84B4" transform="translate(439,208)"/>
<path d="M0 0 C-0.54269531 0.25394531 -1.08539063 0.50789063 -1.64453125 0.76953125 C-2.35996094 1.11371094 -3.07539063 1.45789063 -3.8125 1.8125 C-4.52019531 2.14894531 -5.22789062 2.48539062 -5.95703125 2.83203125 C-8.06150475 3.90909823 -8.06150475 3.90909823 -9.60546875 5.66015625 C-10.06566406 6.10230469 -10.52585938 6.54445313 -11 7 C-13.5 6.625 -13.5 6.625 -16 6 C-16.99 6.33 -17.98 6.66 -19 7 C-19.66 6.34 -20.32 5.68 -21 5 C-18.91780951 4.18457569 -16.83420239 3.37276811 -14.75 2.5625 C-13.58984375 2.11003906 -12.4296875 1.65757813 -11.234375 1.19140625 C-4.27213607 -1.37318659 -4.27213607 -1.37318659 0 0 Z " fill="#609754" transform="translate(145,111)"/>
<path d="M0 0 C0.66 0 1.32 0 2 0 C3.6120509 6.76485645 4.26618595 13.04958914 4 20 C3.34 20 2.68 20 2 20 C1.67 16.37 1.34 12.74 1 9 C-0.32 8.67 -1.64 8.34 -3 8 C-2.01 5.36 -1.02 2.72 0 0 Z " fill="#188BBA" transform="translate(435,188)"/>
<path d="M0 0 C-1.45281065 5.32697239 -5.08111378 8.36402802 -9 12 C-10.28610235 8.14169295 -9.67580926 6.65631112 -8 3 C-5.078923 0.75301769 -3.70411834 0 0 0 Z " fill="#118ABB" transform="translate(355,224)"/>
<path d="M0 0 C2.21604678 2.06321597 3.90846499 3.83357271 5.375 6.5 C6.92762265 9.26056707 6.92762265 9.26056707 10.1875 11.0625 C11.115625 11.701875 12.04375 12.34125 13 13 C13 14.32 13 15.64 13 17 C14.4166747 18.7511573 14.4166747 18.7511573 16 20 C15.67 20.66 15.34 21.32 15 22 C0 6.0625 0 6.0625 0 0 Z " fill="#699868" transform="translate(74,265)"/>
<path d="M0 0 C1 2 2 4 3 6 C1.8553125 6.4640625 1.8553125 6.4640625 0.6875 6.9375 C-3.08445068 9.83225284 -4.14236006 13.38799745 -5 18 C-4.67 18.66 -4.34 19.32 -4 20 C-5.65 20.99 -7.3 21.98 -9 23 C-6.91147495 14.88406495 -3.64670147 7.52943541 0 0 Z " fill="#669661" transform="translate(74,161)"/>
<path d="M0 0 C0 3 0 3 -1 6 C-1.36676691 12.0732286 -0.88957176 17.99539059 0 24 C-0.66 23.67 -1.32 23.34 -2 23 C-2 21.68 -2 20.36 -2 19 C-2.66 19 -3.32 19 -4 19 C-4.10853983 16.77191841 -4.18583307 14.54230068 -4.25 12.3125 C-4.29640625 11.07113281 -4.3428125 9.82976562 -4.390625 8.55078125 C-3.94119343 4.46544831 -2.82179677 2.90511754 0 0 Z " fill="#46A26B" transform="translate(229,168)"/>
<path d="M0 0 C0.33 0.99 0.66 1.98 1 3 C-7 7 -7 7 -9.140625 7.9453125 C-11.32506478 9.00004355 -11.32506478 9.00004355 -13 12 C-16.125 13.1875 -16.125 13.1875 -19 14 C-13.69587676 8.16546444 -7.14684483 3.35059931 0 0 Z " fill="#1C88B4" transform="translate(283,119)"/>
<path d="M0 0 C0.66 0 1.32 0 2 0 C2.66 1.65 3.32 3.3 4 5 C4.99 5 5.98 5 7 5 C7.33 6.32 7.66 7.64 8 9 C7.01 9 6.02 9 5 9 C5.495 9.556875 5.99 10.11375 6.5 10.6875 C8.24754367 13.38162983 8.26218749 14.85375007 8 18 C5.39667844 14.83936913 3.85961424 11.6568348 2.3125 7.875 C1.87550781 6.82054687 1.43851562 5.76609375 0.98828125 4.6796875 C0 2 0 2 0 0 Z " fill="#619A5A" transform="translate(66,247)"/>
<path d="M0 0 C0.33 0 0.66 0 1 0 C1.33 6.93 1.66 13.86 2 21 C2.99 21 3.98 21 5 21 C5.33 22.65 5.66 24.3 6 26 C3.35315815 24.39796415 1.41016799 23.01202254 0.22265625 20.08203125 C-1.34475799 13.61787765 -2.12551416 6.37654248 0 0 Z " fill="#2EB4AB" transform="translate(228,171)"/>
<path d="M0 0 C7.89126028 4.03331081 15.96067586 9.60899126 21 17 C19 16 17 15 15 14 C15 13.34 15 12.68 15 12 C13.68 11.67 12.36 11.34 11 11 C11 10.34 11 9.68 11 9 C10.484375 8.773125 9.96875 8.54625 9.4375 8.3125 C6.10452995 6.51782382 2.85296329 4.50034985 0 2 C0 1.34 0 0.68 0 0 Z " fill="#639363" transform="translate(223,123)"/>
<path d="M0 0 C0.598125 0.165 1.19625 0.33 1.8125 0.5 C4.11344336 1.1114124 4.11344336 1.1114124 7 1 C8.6875 2.5 8.6875 2.5 10 4 C9.01 4.495 9.01 4.495 8 5 C9.32 6.32 10.64 7.64 12 9 C11.34 9.66 10.68 10.32 10 11 C8.33035479 9.35718838 6.6643536 7.71067239 5 6.0625 C4.071875 5.14597656 3.14375 4.22945313 2.1875 3.28515625 C0 1 0 1 0 0 Z " fill="#63975C" transform="translate(149,346)"/>
<path d="M0 0 C0.99 0.495 0.99 0.495 2 1 C2 1.66 2 2.32 2 3 C2.66 3 3.32 3 4 3 C5.11375 4.175625 5.11375 4.175625 6.25 5.375 C10.86139701 9.77678805 15.82163886 10.25859666 22 11 C21.67 11.66 21.34 12.32 21 13 C12.91204665 11.64135171 6.07145389 9.89288172 0 4 C0 2.68 0 1.36 0 0 Z " fill="#3CBABA" transform="translate(231,308)"/>
<path d="M0 0 C-3.63 3.63 -7.26 7.26 -11 11 C-11 7.89018657 -10.53286291 6.60603631 -9.1875 3.875 C-8.85105469 3.17117188 -8.51460938 2.46734375 -8.16796875 1.7421875 C-5.84459872 -1.72344137 -3.77533511 -0.94383378 0 0 Z " fill="#168DB8" transform="translate(280,301)"/>
<path d="M0 0 C0.66 0.99 1.32 1.98 2 3 C3.84500955 5.21740981 3.84500955 5.21740981 6.5625 5.5 C7.7690625 5.7475 7.7690625 5.7475 9 6 C9.33 6.66 9.66 7.32 10 8 C9.34 8 8.68 8 8 8 C7.67 9.32 7.34 10.64 7 12 C3.7 8.7 0.4 5.4 -3 2 C-2.01 1.34 -1.02 0.68 0 0 Z " fill="#62975C" transform="translate(101,294)"/>
<path d="M0 0 C1.98 0.99 3.96 1.98 6 3 C6 3.66 6 4.32 6 5 C6.66 5 7.32 5 8 5 C8 5.66 8 6.32 8 7 C6.5629191 7.05422947 5.12524538 7.09289723 3.6875 7.125 C2.88699219 7.14820313 2.08648437 7.17140625 1.26171875 7.1953125 C-1 7 -1 7 -4 5 C-2.35 5 -0.7 5 1 5 C0.67 3.35 0.34 1.7 0 0 Z " fill="#549D61" transform="translate(232,395)"/>
<path d="M0 0 C0.66 0.33 1.32 0.66 2 1 C1.690625 1.763125 1.38125 2.52625 1.0625 3.3125 C-0.33802581 8.17314841 -0.65979734 12.96858173 -1 18 C-0.34 18 0.32 18 1 18 C1 19.98 1 21.96 1 24 C1.66 24 2.32 24 3 24 C2.67 24.66 2.34 25.32 2 26 C0 25 0 25 -1.109375 22.87109375 C-2.16160974 19.47902124 -2.26541357 16.61147399 -2.25 13.0625 C-2.25515625 11.87785156 -2.2603125 10.69320313 -2.265625 9.47265625 C-1.99993706 5.99917717 -1.24620553 3.23914532 0 0 Z " fill="#4E9F5E" transform="translate(227,366)"/>
<path d="M0 0 C1.21236328 0.01353516 1.21236328 0.01353516 2.44921875 0.02734375 C3.37154297 0.04474609 3.37154297 0.04474609 4.3125 0.0625 C4.3125 0.3925 4.3125 0.7225 4.3125 1.0625 C1.0125 1.3925 -2.2875 1.7225 -5.6875 2.0625 C-6.0175 3.3825 -6.3475 4.7025 -6.6875 6.0625 C-8.5 6.6875 -8.5 6.6875 -10.6875 7.0625 C-11.6775 6.4025 -12.6675 5.7425 -13.6875 5.0625 C-8.94538047 1.79570655 -5.78484004 -0.08383826 0 0 Z " fill="#1B89B6" transform="translate(332.6875,189.9375)"/>
<path d="M0 0 C0.45375 0.969375 0.9075 1.93875 1.375 2.9375 C2.72142507 6.18126246 2.72142507 6.18126246 5.6875 7.375 C6.450625 7.58125 7.21375 7.7875 8 8 C7.67 9.32 7.34 10.64 7 12 C5.39490066 10.56354149 3.79095576 9.12579294 2.1875 7.6875 C1.29417969 6.88699219 0.40085938 6.08648437 -0.51953125 5.26171875 C-2.39926786 3.54775419 -4.22592747 1.82122396 -6 0 C-3 -1 -3 -1 0 0 Z " fill="#64995D" transform="translate(206,165)"/>
<path d="M0 0 C0.66 0 1.32 0 2 0 C2.33 1.65 2.66 3.3 3 5 C3.66 5 4.32 5 5 5 C7.10575375 10.52760359 8.37851209 15.06997733 8 21 C6.20622711 17.59600308 4.81669572 14.09002588 3.4375 10.5 C2.78587891 8.81390625 2.78587891 8.81390625 2.12109375 7.09375 C1.26195763 4.72289352 0.53609225 2.45759142 0 0 Z " fill="#1D88B3" transform="translate(383,183)"/>
<path d="M0 0 C4 2 4 2 5.9375 3 C8.24985108 4.12113992 10.60560963 5.06884819 13 6 C12.01 7.485 12.01 7.485 11 9 C10.67 9.66 10.34 10.32 10 11 C8.33035479 9.35718838 6.6643536 7.71067239 5 6.0625 C4.071875 5.14597656 3.14375 4.22945313 2.1875 3.28515625 C0 1 0 1 0 0 Z " fill="#62985E" transform="translate(162,359)"/>
<path d="M0 0 C2.64680904 0.11339204 5.29177518 0.24012873 7.9375 0.375 C9.06961914 0.42140625 9.06961914 0.42140625 10.22460938 0.46875 C12.15507395 0.5726315 14.07942081 0.77895614 16 1 C16.33 1.66 16.66 2.32 17 3 C14.72923158 3.02699725 12.45837179 3.04639453 10.1875 3.0625 C8.29064453 3.07990234 8.29064453 3.07990234 6.35546875 3.09765625 C3 3 3 3 0 2 C0 1.34 0 0.68 0 0 Z " fill="#44B2BC" transform="translate(240,400)"/>
<path d="M0 0 C0 0.66 0 1.32 0 2 C-1.175625 2.268125 -2.35125 2.53625 -3.5625 2.8125 C-6.46569038 3.52159783 -9.0502836 4.41084452 -11.75 5.6875 C-15.13306719 7.05373867 -15.74423707 7.05458408 -19 6 C-16.58660204 4.99141578 -14.16981325 3.99297327 -11.75 3 C-11.06808594 2.71382813 -10.38617188 2.42765625 -9.68359375 2.1328125 C-6.18584265 0.70654506 -3.83099811 0 0 0 Z " fill="#1D87B4" transform="translate(306,111)"/>
<path d="M0 0 C0.33 0.99 0.66 1.98 1 3 C0.01 3.33 -0.98 3.66 -2 4 C-2.309375 4.66 -2.61875 5.32 -2.9375 6 C-3.288125 6.66 -3.63875 7.32 -4 8 C-5.32594105 8.36162029 -6.65938457 8.69728039 -8 9 C-8.33 9.99 -8.66 10.98 -9 12 C-9.33 11.34 -9.66 10.68 -10 10 C-8.38405168 7.95880212 -6.7143618 5.95927063 -5 4 C-4.34 4 -3.68 4 -3 4 C-3 3.34 -3 2.68 -3 2 C-2.01 1.34 -1.02 0.68 0 0 Z " fill="#2FB1A1" transform="translate(249,264)"/>
<path d="M0 0 C1.98 0 3.96 0 6 0 C4.54955729 4.10958767 2.48889248 7.43258745 0 11 C-0.33 9.68 -0.66 8.36 -1 7 C-0.34 6.67 0.32 6.34 1 6 C0.67 4.02 0.34 2.04 0 0 Z " fill="#1589B9" transform="translate(419,266)"/>
<path d="M0 0 C4.91935902 4.11619836 9.52647956 8.40410362 14 13 C13.01 13.33 12.02 13.66 11 14 C11 13.34 11 12.68 11 12 C10.34 12 9.68 12 9 12 C6.375 9.625 6.375 9.625 4 7 C4 6.34 4 5.68 4 5 C3.01 5 2.02 5 1 5 C0.67 3.35 0.34 1.7 0 0 Z " fill="#669262" transform="translate(220,233)"/>
<path d="M0 0 C0.625 1.875 0.625 1.875 1 4 C0.34 4.66 -0.32 5.32 -1 6 C-1.64767793 8.57061311 -1.64767793 8.57061311 -2 11 C-2.33 10.34 -2.66 9.68 -3 9 C-3.99 8.67 -4.98 8.34 -6 8 C-4.55746343 4.63408134 -2.66735273 2.48952921 0 0 Z " fill="#1587B5" transform="translate(256,256)"/>
<path d="M0 0 C2 1 2 1 3.3125 3.375 C5.20600376 6.3204503 6.92130157 7.41904675 10 9 C9.67 10.32 9.34 11.64 9 13 C5.37 9.37 1.74 5.74 -2 2 C-1.34 1.34 -0.68 0.68 0 0 Z " fill="#63935F" transform="translate(163,241)"/>
<path d="M0 0 C0.99 1.32 1.98 2.64 3 4 C-1.95 6.97 -1.95 6.97 -7 10 C-7 7 -7 7 -5 5 C-3.33333333 3.33333333 -1.66666667 1.66666667 0 0 Z " fill="#158ABA" transform="translate(301,160)"/>
<path d="M0 0 C2.31 0.66 4.62 1.32 7 2 C7 3.32 7 4.64 7 6 C7.66 6 8.32 6 9 6 C9.33 5.34 9.66 4.68 10 4 C10 5.98 10 7.96 10 10 C2.51708428 3.84965831 2.51708428 3.84965831 0 0 Z " fill="#64975E" transform="translate(217,297)"/>
<path d="M0 0 C0.33 0 0.66 0 1 0 C1.12117187 0.81984375 1.24234375 1.6396875 1.3671875 2.484375 C1.53476563 3.56203125 1.70234375 4.6396875 1.875 5.75 C2.03742188 6.81734375 2.19984375 7.8846875 2.3671875 8.984375 C2.84995962 11.94736919 2.84995962 11.94736919 4.1328125 14.203125 C5 16 5 16 4 19 C1.46756317 17.12819886 1.00099762 16.00453464 0.3125 12.875 C-0.03505111 8.56536624 -0.08816095 4.31988651 0 0 Z " fill="#4BA170" transform="translate(226,292)"/>
<path d="M0 0 C6.05537521 0.30276876 9.51483458 3.27754038 14 7 C13.01 7.33 12.02 7.66 11 8 C11 7.34 11 6.68 11 6 C9.68 6 8.36 6 7 6 C7 5.34 7 4.68 7 4 C6.34 4 5.68 4 5 4 C5 3.34 5 2.68 5 2 C3.35 2 1.7 2 0 2 C0 1.34 0 0.68 0 0 Z " fill="#1C87B3" transform="translate(338,191)"/>
<path d="M0 0 C0.33 0.66 0.66 1.32 1 2 C-2.15221101 6.41309542 -5.55463907 9.00793014 -10 12 C-10.66 11.67 -11.32 11.34 -12 11 C-8.04 7.37 -4.08 3.74 0 0 Z " fill="#2089B8" transform="translate(297,332)"/>
<path d="M0 0 C1.79068573 2.6860286 2.66055791 4.6626589 3.625 7.6875 C3.88539063 8.49574219 4.14578125 9.30398437 4.4140625 10.13671875 C4.60742188 10.75160156 4.80078125 11.36648437 5 12 C4.34 12 3.68 12 3 12 C2.34 10.68 1.68 9.36 1 8 C0.34 8 -0.32 8 -1 8 C-0.67 5.36 -0.34 2.72 0 0 Z " fill="#1A8BB6" transform="translate(429,168)"/>
<path d="M0 0 C1.32 0.66 2.64 1.32 4 2 C2.35 3.98 0.7 5.96 -1 8 C-1.66 6.68 -2.32 5.36 -3 4 C-2.34 4 -1.68 4 -1 4 C-0.67 2.68 -0.34 1.36 0 0 Z " fill="#128ABC" transform="translate(333,242)"/>
<path d="M0 0 C0.9681648 3.8726592 1.07622858 7.03611362 1 11 C-0.98 11.66 -2.96 12.32 -5 13 C-3.35 8.71 -1.7 4.42 0 0 Z " fill="#1A86B6" transform="translate(388,231)"/>
<path d="M0 0 C0.33 0.66 0.66 1.32 1 2 C-0.28965176 3.37562854 -1.62689293 4.70766393 -3 6 C-3.66 6 -4.32 6 -5 6 C-5 7.32 -5 8.64 -5 10 C-6.32 10.33 -7.64 10.66 -9 11 C-8.65978036 7.82461668 -7.97533396 6.97723135 -5.5625 4.75 C-3 3 -3 3 -1 3 C-0.67 2.01 -0.34 1.02 0 0 Z " fill="#32B09D" transform="translate(245,151)"/>
<path d="M0 0 C0.268125 0.598125 0.53625 1.19625 0.8125 1.8125 C1.98493467 3.97224808 3.19369282 5.35790256 5 7 C0.94718288 5.77472971 -2.44360764 4.30119506 -6 2 C-3 0 -3 0 0 0 Z " fill="#679863" transform="translate(201,386)"/>
<path d="M0 0 C1.65 0 3.3 0 5 0 C5.33 1.65 5.66 3.3 6 5 C6.66 5 7.32 5 8 5 C8.33 6.32 8.66 7.64 9 9 C7.87105124 8.06725891 6.74699124 7.12859878 5.625 6.1875 C4.99851563 5.66542969 4.37203125 5.14335937 3.7265625 4.60546875 C2 3 2 3 0 0 Z " fill="#67955E" transform="translate(184,264)"/>
<path d="M0 0 C0 0.66 0 1.32 0 2 C-1.32 2 -2.64 2 -4 2 C-4.33 2.99 -4.66 3.98 -5 5 C-6.98 5.33 -8.96 5.66 -11 6 C-5.30769231 0 -5.30769231 0 0 0 Z " fill="#629760" transform="translate(162,191)"/>
<path d="M0 0 C0 0.66 0 1.32 0 2 C-0.99 2 -1.98 2 -3 2 C-3 2.66 -3 3.32 -3 4 C-3.66 4 -4.32 4 -5 4 C-5 4.66 -5 5.32 -5 6 C-5.99 6.33 -6.98 6.66 -8 7 C-8.99 6.34 -9.98 5.68 -11 5 C-9.54462432 4.16151196 -8.08559627 3.32936066 -6.625 2.5 C-5.81289062 2.0359375 -5.00078125 1.571875 -4.1640625 1.09375 C-2 0 -2 0 0 0 Z " fill="#62945E" transform="translate(123,117)"/>
<path d="M0 0 C2.31 0.33 4.62 0.66 7 1 C7.625 2.875 7.625 2.875 8 5 C7.34 5.66 6.68 6.32 6 7 C4.02 4.69 2.04 2.38 0 0 Z " fill="#64985F" transform="translate(109,306)"/>
<path d="M0 0 C2.0625 0.4375 2.0625 0.4375 4 1 C4 1.66 4 2.32 4 3 C2.46875 4.2890625 2.46875 4.2890625 0.5 5.625 C-0.1496875 6.07101562 -0.799375 6.51703125 -1.46875 6.9765625 C-1.9740625 7.31429688 -2.479375 7.65203125 -3 8 C-1.125 1.125 -1.125 1.125 0 0 Z " fill="#1285B5" transform="translate(284,291)"/>
<path d="M0 0 C0 4.41236026 -2.0697293 5.78384923 -5 9 C-5.33 9 -5.66 9 -6 9 C-6 7.02 -6 5.04 -6 3 C-5.38125 2.87625 -4.7625 2.7525 -4.125 2.625 C-1.80879168 2.12802644 -1.80879168 2.12802644 0 0 Z " fill="#1882BB" transform="translate(415,279)"/>
<path d="M0 0 C1.5 1.3125 1.5 1.3125 3 3 C3 3.99 3 4.98 3 6 C4.43750191 7.68798827 4.43750191 7.68798827 6 9 C5.67 9.66 5.34 10.32 5 11 C0.07692308 5.70769231 0.07692308 5.70769231 -0.3125 2.125 C-0.209375 1.42375 -0.10625 0.7225 0 0 Z " fill="#62965F" transform="translate(84,276)"/>
<path d="M0 0 C0.66 0.33 1.32 0.66 2 1 C1.67 1.598125 1.34 2.19625 1 2.8125 C-0.20787988 5.05386471 -0.20787988 5.05386471 0 8 C-1.65 7.67 -3.3 7.34 -5 7 C-3.70700306 4.11562221 -2.34058637 2.12780579 0 0 Z " fill="#65985A" transform="translate(95,135)"/>
<path d="M0 0 C7.48291572 6.15034169 7.48291572 6.15034169 10 10 C6.55204777 8.46757679 3.7800962 6.55468299 1 4 C0.35546875 1.8671875 0.35546875 1.8671875 0 0 Z " fill="#5D905F" transform="translate(185,314)"/>
<path d="M0 0 C0 0.99 0 1.98 0 3 C-0.99 3.66 -1.98 4.32 -3 5 C-3.33 4.01 -3.66 3.02 -4 2 C-4.66 1.34 -5.32 0.68 -6 0 C-3.50907189 -1.24546405 -2.58919267 -0.7767578 0 0 Z " fill="#0E8BBD" transform="translate(344,235)"/>
<path d="M0 0 C1.98 0.66 3.96 1.32 6 2 C6 2.66 6 3.32 6 4 C6.66 4 7.32 4 8 4 C8.33 5.32 8.66 6.64 9 8 C4.7257442 6.4169423 2.73468206 3.49431596 0 0 Z " fill="#679367" transform="translate(219,183)"/>
<path d="M0 0 C1.32 0 2.64 0 4 0 C6.0380879 2.82196786 7.44706423 5.89412846 9 9 C7.87105124 8.06725891 6.74699124 7.12859878 5.625 6.1875 C4.99851563 5.66542969 4.37203125 5.14335937 3.7265625 4.60546875 C2 3 2 3 0 0 Z " fill="#699561" transform="translate(208,288)"/>
<path d="M0 0 C0.66 0.99 1.32 1.98 2 3 C-0.31 4.98 -2.62 6.96 -5 9 C-5 7.68 -5 6.36 -5 5 C-4.01 4.67 -3.02 4.34 -2 4 C-0.79117904 1.99983534 -0.79117904 1.99983534 0 0 Z " fill="#64935F" transform="translate(129,166)"/>
<path d="M0 0 C2.31 0.66 4.62 1.32 7 2 C7 3.65 7 5.3 7 7 C5.83040013 6.02433888 4.66438823 5.044375 3.5 4.0625 C2.8503125 3.51722656 2.200625 2.97195313 1.53125 2.41015625 C1.0259375 1.94480469 0.520625 1.47945313 0 1 C0 0.67 0 0.34 0 0 Z " fill="#669760" transform="translate(201,281)"/>
<path d="M0 0 C2.84262206 1.42131103 3.59335994 3.18671989 5 6 C5.1875 8.8125 5.1875 8.8125 5 11 C0 4.63636364 0 4.63636364 0 0 Z " fill="#679365" transform="translate(69,254)"/>
<path d="M0 0 C2.02054804 1.64169528 4.02043058 3.30911778 6 5 C6 5.33 6 5.66 6 6 C4.02 6 2.04 6 0 6 C-1.24546405 3.50907189 -0.7767578 2.58919267 0 0 Z " fill="#55A043" transform="translate(106,225)"/>
<path d="M0 0 C0.99 0.495 0.99 0.495 2 1 C2 2.32 2 3.64 2 5 C2.99 5 3.98 5 5 5 C5.33 6.65 5.66 8.3 6 10 C2.64888166 7.76592111 1.18446044 6.73784176 0.1875 2.75 C0.125625 1.8425 0.06375 0.935 0 0 Z " fill="#3CAEB1" transform="translate(228,187)"/>
<path d="M0 0 C3.63 0.66 7.26 1.32 11 2 C10.67 2.66 10.34 3.32 10 4 C6.7 3.34 3.4 2.68 0 2 C0 1.34 0 0.68 0 0 Z " fill="#37C1CB" transform="translate(242,317)"/>
<path d="M0 0 C2.31 0.33 4.62 0.66 7 1 C6.34 2.32 5.68 3.64 5 5 C4.01 4.34 3.02 3.68 2 3 C2.33 2.67 2.66 2.34 3 2 C2.01 1.34 1.02 0.68 0 0 Z " fill="#2DAEB5" transform="translate(249,354)"/>
<path d="M0 0 C1 2 1 2 0.44140625 3.9453125 C0.15136719 4.66460937 -0.13867188 5.38390625 -0.4375 6.125 C-0.72496094 6.84945312 -1.01242187 7.57390625 -1.30859375 8.3203125 C-1.53675781 8.87460938 -1.76492188 9.42890625 -2 10 C-3.0625 8.125 -3.0625 8.125 -4 6 C-3.67 5.34 -3.34 4.68 -3 4 C-2.34 4 -1.68 4 -1 4 C-0.67 2.68 -0.34 1.36 0 0 Z " fill="#1B89B6" transform="translate(434,244)"/>
<path d="M0 0 C0 3.60777515 -0.9904432 5.06295544 -3 8 C-3.99 8.495 -3.99 8.495 -5 9 C-3.90931332 5.22454612 -3.0916909 2.52956528 0 0 Z " fill="#6C9166" transform="translate(149,198)"/>
<path d="M0 0 C1.485 0.99 1.485 0.99 3 2 C2.34 3.98 1.68 5.96 1 8 C0.34 7.34 -0.32 6.68 -1 6 C-0.625 2.875 -0.625 2.875 0 0 Z " fill="#629A58" transform="translate(115,180)"/>
<path d="M0 0 C-0.33 0.99 -0.66 1.98 -1 3 C-3.64 3 -6.28 3 -9 3 C-5.73209435 0.82139623 -3.91954654 0 0 0 Z " fill="#66935D" transform="translate(137,112)"/>
</svg>
